<svg viewBox="0 0 800 700" xmlns="http://www.w3.org/2000/svg">
  <!-- Background -->
  <rect width="800" height="700" fill="white"/>
  
  <!-- Panel Box -->
  <rect x="100" y="50" width="600" height="600" fill="#f5f5f5" stroke="black" stroke-width="3"/>
  
  <!-- Panel Label -->
  <rect x="300" y="60" width="200" height="40" fill="#333" stroke="black" stroke-width="2"/>
  <text x="400" y="85" text-anchor="middle" font-size="18" fill="white" font-weight="bold">PANEL LP-2A</text>
  <text x="400" y="120" text-anchor="middle" font-size="14">480Y/277V, 3PH, 4W, 225A</text>
  
  <!-- Main Breaker -->
  <rect x="350" y="140" width="100" height="60" fill="#dc3545" stroke="black" stroke-width="2"/>
  <text x="400" y="165" text-anchor="middle" font-size="14" fill="white" font-weight="bold">MAIN</text>
  <text x="400" y="185" text-anchor="middle" font-size="12" fill="white">225A</text>
  
  <!-- Circuit Breakers Grid -->
  <!-- Left Side -->
  <g id="left-breakers">
    <!-- Circuit 1 -->
    <rect x="120" y="220" width="280" height="30" fill="#28a745" stroke="black" stroke-width="1"/>
    <text x="130" y="240" font-size="12" font-weight="bold">1</text>
    <text x="160" y="240" font-size="11">Lighting - North Wing</text>
    <text x="370" y="240" font-size="11" text-anchor="end">20A</text>
    
    <!-- Circuit 3 -->
    <rect x="120" y="255" width="280" height="30" fill="#28a745" stroke="black" stroke-width="1"/>
    <text x="130" y="275" font-size="12" font-weight="bold">3</text>
    <text x="160" y="275" font-size="11">Lighting - South Wing</text>
    <text x="370" y="275" font-size="11" text-anchor="end">20A</text>
    
    <!-- Circuit 5 -->
    <rect x="120" y="290" width="280" height="30" fill="#28a745" stroke="black" stroke-width="1"/>
    <text x="130" y="310" font-size="12" font-weight="bold">5</text>
    <text x="160" y="310" font-size="11">Receptacles - Office 101-105</text>
    <text x="370" y="310" font-size="11" text-anchor="end">20A</text>
    
    <!-- Circuit 7 -->
    <rect x="120" y="325" width="280" height="30" fill="#28a745" stroke="black" stroke-width="1"/>
    <text x="130" y="345" font-size="12" font-weight="bold">7</text>
    <text x="160" y="345" font-size="11">Receptacles - Office 106-110</text>
    <text x="370" y="345" font-size="11" text-anchor="end">20A</text>
    
    <!-- Circuit 9 (3-pole) -->
    <rect x="120" y="360" width="280" height="45" fill="#ffc107" stroke="black" stroke-width="2"/>
    <text x="130" y="385" font-size="12" font-weight="bold">9,11,13</text>
    <text x="200" y="385" font-size="11">HVAC Unit RTU-1</text>
    <text x="370" y="385" font-size="11" text-anchor="end">30A/3P</text>
    
    <!-- Circuit 15 -->
    <rect x="120" y="410" width="280" height="30" fill="#28a745" stroke="black" stroke-width="1"/>
    <text x="130" y="430" font-size="12" font-weight="bold">15</text>
    <text x="160" y="430" font-size="11">Server Room Receptacles</text>
    <text x="370" y="430" font-size="11" text-anchor="end">30A</text>
    
    <!-- Circuit 17 -->
    <rect x="120" y="445" width="280" height="30" fill="#6c757d" stroke="black" stroke-width="1"/>
    <text x="130" y="465" font-size="12" font-weight="bold">17</text>
    <text x="160" y="465" font-size="11">SPARE</text>
    <text x="370" y="465" font-size="11" text-anchor="end">20A</text>
    
    <!-- Circuit 19 (2-pole) -->
    <rect x="120" y="480" width="280" height="35" fill="#17a2b8" stroke="black" stroke-width="2"/>
    <text x="130" y="500" font-size="12" font-weight="bold">19,21</text>
    <text x="185" y="500" font-size="11">Electric Water Heater</text>
    <text x="370" y="500" font-size="11" text-anchor="end">40A/2P</text>
  </g>
  
  <!-- Right Side -->
  <g id="right-breakers">
    <!-- Circuit 2 -->
    <rect x="400" y="220" width="280" height="30" fill="#28a745" stroke="black" stroke-width="1"/>
    <text x="410" y="240" font-size="12" font-weight="bold">2</text>
    <text x="440" y="240" font-size="11">Lighting - East Wing</text>
    <text x="650" y="240" font-size="11" text-anchor="end">20A</text>
    
    <!-- Circuit 4 -->
    <rect x="400" y="255" width="280" height="30" fill="#28a745" stroke="black" stroke-width="1"/>
    <text x="410" y="275" font-size="12" font-weight="bold">4</text>
    <text x="440" y="275" font-size="11">Lighting - West Wing</text>
    <text x="650" y="275" font-size="11" text-anchor="end">20A</text>
    
    <!-- Circuit 6 -->
    <rect x="400" y="290" width="280" height="30" fill="#28a745" stroke="black" stroke-width="1"/>
    <text x="410" y="310" font-size="12" font-weight="bold">6</text>
    <text x="440" y="310" font-size="11">Emergency Lighting</text>
    <text x="650" y="310" font-size="11" text-anchor="end">15A</text>
    
    <!-- Circuit 8 -->
    <rect x="400" y="325" width="280" height="30" fill="#28a745" stroke="black" stroke-width="1"/>
    <text x="410" y="345" font-size="12" font-weight="bold">8</text>
    <text x="440" y="345" font-size="11">Conference Room</text>
    <text x="650" y="345" font-size="11" text-anchor="end">20A</text>
    
    <!-- Circuit 10 (3-pole) -->
    <rect x="400" y="360" width="280" height="45" fill="#ffc107" stroke="black" stroke-width="2"/>
    <text x="410" y="385" font-size="12" font-weight="bold">10,12,14</text>
    <text x="480" y="385" font-size="11">HVAC Unit RTU-2</text>
    <text x="650" y="385" font-size="11" text-anchor="end">30A/3P</text>
    
    <!-- Circuit 16 -->
    <rect x="400" y="410" width="280" height="30" fill="#28a745" stroke="black" stroke-width="1"/>
    <text x="410" y="430" font-size="12" font-weight="bold">16</text>
    <text x="440" y="430" font-size="11">Break Room Appliances</text>
    <text x="650" y="430" font-size="11" text-anchor="end">20A</text>
    
    <!-- Circuit 18 -->
    <rect x="400" y="445" width="280" height="30" fill="#6c757d" stroke="black" stroke-width="1"/>
    <text x="410" y="465" font-size="12" font-weight="bold">18</text>
    <text x="440" y="465" font-size="11">SPARE</text>
    <text x="650" y="465" font-size="11" text-anchor="end">20A</text>
    
    <!-- Circuit 20 (2-pole) -->
    <rect x="400" y="480" width="280" height="35" fill="#17a2b8" stroke="black" stroke-width="2"/>
    <text x="410" y="500" font-size="12" font-weight="bold">20,22</text>
    <text x="470" y="500" font-size="11">Elevator Motor</text>
    <text x="650" y="500" font-size="11" text-anchor="end">50A/2P</text>
  </g>
  
  <!-- Load Summary Box -->
  <rect x="120" y="540" width="560" height="80" fill="#e9ecef" stroke="black" stroke-width="2"/>
  <text x="400" y="560" text-anchor="middle" font-size="14" font-weight="bold">LOAD SUMMARY</text>
  <text x="140" y="580" font-size="12">Connected Load: 168.5 kW</text>
  <text x="140" y="600" font-size="12">Demand Load: 143.2 kW</text>
  <text x="400" y="580" font-size="12">Total Breakers: 22</text>
  <text x="400" y="600" font-size="12">Spaces Used: 18</text>
  <text x="560" y="580" font-size="12">% Load: 75%</text>
  <text x="560" y="600" font-size="12">Spare Spaces: 4</text>
  
  <!-- Legend -->
  <rect x="50" y="640" width="20" height="15" fill="#28a745" stroke="black"/>
  <text x="75" y="652" font-size="11">Single Phase</text>
  
  <rect x="180" y="640" width="20" height="15" fill="#17a2b8" stroke="black"/>
  <text x="205" y="652" font-size="11">Two Phase</text>
  
  <rect x="310" y="640" width="20" height="15" fill="#ffc107" stroke="black"/>
  <text x="335" y="652" font-size="11">Three Phase</text>
  
  <rect x="440" y="640" width="20" height="15" fill="#6c757d" stroke="black"/>
  <text x="465" y="652" font-size="11">Spare</text>
  
  <rect x="550" y="640" width="20" height="15" fill="#dc3545" stroke="black"/>
  <text x="575" y="652" font-size="11">Main Breaker</text>
  
  <!-- Title -->
  <text x="400" y="680" text-anchor="middle" font-size="16" font-weight="bold">ELECTRICAL PANEL SCHEDULE - BUILDING A, FLOOR 2</text>
</svg>